<?xml version="1.0" encoding="UTF-8"?>
<svg id="Layer_1" xmlns="http://www.w3.org/2000/svg" width="512" height="512" version="1.1" viewBox="0 0 512 512">
  <!-- Generator: Adobe Illustrator 30.5.1, SVG Export Plug-In . SVG Version: 2.1.4 Build 3)  -->
  <defs>
    <style>
      .st0 {
        fill: #3e4d40;
      }

      .st1 {
        fill: #414042;
      }

      .st2 {
        fill: #fff;
      }

      .st3 {
        fill: #2d3a2f;
      }

      .st4 {
        fill: #f2f0ea;
      }

      .st5 {
        fill: #fc4f4f;
      }
    </style>
  </defs>
  <rect class="st4" width="512" height="512" rx="96" ry="96"/>
  <g>
    <path class="st3" d="M254.0982,396.6551v-230.3305L62.5377,398.2191h191.6185l-.0447-1.4513c-.0024-.0711-.0111-.1716-.0133-.1127Z"/>
    <polygon class="st0" points="257.7567 272.3533 306.0608 398.2191 449.3195 398.2191 257.7567 166.3246 257.7567 272.3533"/>
    <path class="st1" d="M56.672,389.4525c-.766-3.5254-3.8142-5.6509-6.8077-4.7488-2.9941.9027-4.7993,4.4916-4.0337,8.0163l.1242.5689,10.8416-3.2675-.1243-.5689Z"/>
    <path class="st1" d="M462.1357,384.7038c-2.9929-.9021-6.041,1.2234-6.8077,4.7488l-.1237.5689,10.8414,3.2675.1237-.5689c.7656-3.5247-1.0396-7.1136-4.0337-8.0163Z"/>
    <path class="st3" d="M456.6459,394.9344l-.2196,1.4416L255.9277,100.7523,55.5481,396.2037l-.1934-1.2693-.302-1.9845-6.5481,1.9728.9014,3.2964h8.5949l.3131-.835c.1074-.288.2166-.4931.3427-.6457l195.8213-237.0515.1464-.1716c.694-.835,1.9027-.8454,2.6154.0102l195.9613,237.2142c.126.1518.2347.3563.3421.6443l.3131.835h3.82l-.0953-.1409.1354.1409h5.0723l.7074-3.2964-6.5487-1.9728-.3014,1.9845Z"/>
  </g>
  <g>
    <circle class="st2" cx="175.3557" cy="307.3049" r="39.5613"/>
    <path class="st5" d="M175.3557,254.8049c-28.9949,0-52.5,23.5051-52.5,52.5s23.5051,52.5,52.5,52.5,52.5-23.505,52.5-52.5-23.5051-52.5-52.5-52.5ZM200,320.2395c-4.78,4.9104-11.592,10.8041-20.9374,19.427-.4412.4071-.9149.7715-1.4146,1.0908-1.4067.8988-3.1779.8988-4.5846,0-.4997-.3193-.9735-.6838-1.4146-1.0908-9.3454-8.6229-16.1573-14.5166-20.9374-19.427-16.5407-16.9916-7.8746-29.7395-5.0508-32.8053,6.5659-7.1285,18.7521-8.6562,27.0247-1.3119,1.5135,1.3436,3.8273,1.3436,5.3407,0,8.2726-7.3443,20.4588-5.8167,27.0247,1.3119,2.8238,3.0658,11.4899,15.8138-5.0508,32.8053Z"/>
  </g>
</svg>